<?xml version="1.0" standalone="no"?>
<!DOCTYPE svg PUBLIC "-//W3C//DTD SVG 20010904//EN"
 "http://www.w3.org/TR/2001/REC-SVG-20010904/DTD/svg10.dtd">
<svg version="1.0" xmlns="http://www.w3.org/2000/svg"
 width="1024.000000pt" height="1024.000000pt" viewBox="0 0 1024.000000 1024.000000"
 preserveAspectRatio="xMidYMid meet">

<g transform="translate(0.000000,1024.000000) scale(0.100000,-0.100000)"
fill="#000000" stroke="none">
<path d="M4468 8259 c-2 -4 -47 -17 -101 -29 -53 -12 -124 -30 -157 -41 -32
-10 -87 -22 -120 -26 -33 -3 -63 -10 -66 -14 -3 -5 -15 -9 -27 -9 -12 0 -35
-9 -52 -20 -16 -11 -37 -20 -45 -20 -8 0 -35 -14 -60 -31 -41 -28 -222 -119
-238 -119 -4 0 -16 -8 -27 -16 -19 -16 -19 -16 5 -9 42 13 8 -18 -55 -50 -70
-35 -81 -28 -18 14 26 17 43 31 37 31 -6 0 -28 -11 -48 -25 -20 -14 -47 -25
-59 -25 -22 0 -222 -127 -253 -161 -17 -19 -17 -20 2 -13 10 4 -5 -12 -34 -36
-54 -44 -65 -68 -15 -33 38 27 53 35 53 30 0 -8 -80 -57 -93 -57 -8 0 -22 -10
-33 -21 -10 -12 -41 -40 -69 -62 l-50 -40 35 5 c35 5 34 4 -44 -68 -43 -40
-83 -71 -88 -68 -5 3 -1 15 9 26 18 21 18 21 -5 9 -37 -19 -102 -82 -102 -97
0 -8 -18 -21 -40 -30 -41 -17 -119 -96 -101 -102 6 -2 -6 -27 -26 -55 l-37
-52 35 33 c55 51 55 38 1 -31 -59 -75 -162 -230 -162 -243 1 -5 16 9 36 31 31
36 34 37 24 12 -11 -31 -68 -117 -77 -117 -3 0 -2 11 1 25 4 14 4 25 2 25 -8
0 -106 -161 -106 -175 0 -27 17 -15 35 25 10 22 22 40 28 40 5 0 5 -6 -2 -13
-6 -8 -17 -30 -26 -49 l-15 -36 56 -82 c42 -61 53 -85 45 -93 -6 -7 -66 -50
-133 -97 -105 -73 -123 -90 -131 -120 -12 -47 -24 -58 -20 -18 1 18 0 27 -3
21 -3 -7 -14 -13 -23 -13 -28 0 -54 -35 -47 -64 3 -14 1 -30 -6 -38 -7 -7 -14
-23 -14 -35 -1 -12 -4 -41 -8 -63 -4 -27 -3 -39 4 -35 5 3 10 15 10 25 0 10 4
21 9 24 5 3 17 38 26 78 17 70 34 115 35 92 0 -7 -12 -52 -26 -100 -51 -177
-66 -258 -69 -376 -4 -128 -28 -234 -57 -249 -15 -8 -18 -5 -18 15 0 14 -4 27
-10 31 -11 7 -2 -82 11 -105 6 -11 10 -7 15 18 4 18 9 31 11 28 7 -7 -17 -155
-33 -204 -16 -49 -19 -138 -5 -147 5 -3 12 4 16 15 12 37 25 21 25 -30 0 -28
6 -61 14 -73 11 -18 11 -27 1 -45 -7 -13 -15 -22 -18 -20 -3 2 -9 0 -13 -5 -4
-4 0 -7 9 -7 10 0 17 -5 17 -10 0 -7 -7 -7 -21 0 -11 7 -23 9 -26 6 -8 -7 23
-269 41 -356 24 -116 30 -183 14 -175 -7 3 -6 1 3 -7 9 -7 16 -20 17 -28 1
-15 11 -111 12 -120 0 -3 4 1 9 9 12 19 34 -24 60 -115 42 -153 81 -230 177
-353 97 -123 126 -183 133 -276 6 -66 10 -77 50 -129 24 -31 48 -59 52 -62 5
-3 9 -13 9 -23 0 -29 36 -66 77 -80 93 -31 169 -112 278 -295 66 -113 156
-210 228 -246 27 -13 76 -53 110 -89 33 -36 65 -65 69 -64 4 2 8 -4 8 -12 0
-8 7 -15 15 -15 8 0 70 -37 137 -81 68 -45 130 -84 138 -86 8 -3 54 -23 101
-45 l86 -40 50 31 c28 17 53 31 56 31 3 0 35 -43 72 -95 67 -97 72 -100 150
-108 22 -2 70 -18 106 -36 36 -17 73 -31 82 -31 8 0 22 -6 29 -13 7 -8 20 -16
28 -20 8 -3 2 -6 -15 -6 -16 0 -41 6 -55 14 -14 8 -35 14 -47 15 -13 0 -23 6
-23 14 0 8 -22 21 -49 30 -57 18 -81 20 -81 6 0 -11 103 -60 126 -60 8 0 14
-4 14 -9 0 -9 -48 0 -70 14 -14 9 -12 -11 3 -22 15 -12 140 -51 187 -58 32 -5
33 -4 13 6 -13 7 -23 16 -23 21 0 4 -9 8 -20 8 -11 0 -20 4 -20 10 0 5 6 7 13
5 6 -2 25 -7 40 -9 51 -9 131 -39 177 -66 25 -15 65 -30 90 -34 l45 -6 -25 21
-25 21 45 -6 c25 -4 61 -9 80 -12 37 -7 33 10 -5 19 -11 2 42 3 117 2 l137 -2
200 138 c109 77 203 139 208 139 5 0 47 -54 93 -121 46 -67 90 -124 98 -126
28 -11 294 31 472 74 102 25 221 61 265 81 44 19 145 56 225 82 80 26 200 75
266 108 101 51 126 68 145 99 105 173 331 415 549 587 147 116 216 181 274
256 103 134 163 271 187 421 11 72 7 271 -6 316 l-7 22 -36 -20 c-51 -27 -113
-25 -139 4 -28 31 -39 54 -52 114 -14 69 -2 131 48 242 59 131 75 183 59 192
-9 6 -17 -3 -26 -29 -15 -46 -33 -82 -42 -82 -3 0 -4 17 -2 38 3 28 1 34 -8
26 -6 -7 -13 -30 -13 -53 -1 -22 -5 -41 -8 -41 -10 0 -21 49 -14 60 4 6 2 10
-3 10 -9 0 -14 -25 -28 -143 -6 -45 -8 -49 -30 -44 -15 3 -24 0 -24 -9 0 -7
-4 -16 -10 -19 -6 -4 -10 7 -10 25 0 26 3 30 19 25 26 -8 51 32 30 46 -8 5
-16 9 -19 9 -10 -1 -37 -46 -44 -73 -8 -33 -26 -36 -26 -4 -1 21 -2 21 -26 -8
-22 -26 -25 -27 -19 -7 7 23 -1 27 -24 13 -8 -5 -12 -18 -8 -31 3 -12 2 -27
-3 -34 -52 -64 -61 -78 -57 -93 3 -14 6 -11 12 10 5 19 12 26 22 23 8 -3 19
-6 24 -6 6 0 8 -4 5 -9 -3 -5 -1 -23 5 -41 9 -23 9 -34 0 -43 -6 -6 -11 -18
-11 -27 0 -8 14 7 31 33 36 55 46 55 29 1 -8 -23 -45 -72 -94 -124 -45 -47
-101 -114 -125 -148 -24 -34 -51 -64 -60 -67 -9 -3 -27 -24 -41 -46 -31 -50
-232 -239 -254 -239 -3 0 -6 11 -6 25 0 24 -2 24 -87 27 l-88 3 -3 83 -3 82
-74 0 -75 0 0 -165 0 -165 165 0 c164 0 165 0 165 23 1 43 92 124 128 113 12
-4 27 4 47 24 37 39 65 41 35 3 -27 -35 -108 -93 -129 -93 -20 0 -71 -46 -71
-63 0 -19 -53 -66 -155 -139 -647 -464 -1395 -635 -2235 -512 -125 18 -281 53
-294 65 -6 5 -18 9 -28 9 -10 0 -97 34 -193 76 -175 77 -355 173 -445 239 -26
19 -57 35 -69 35 -12 0 -24 7 -27 15 -4 8 -11 15 -18 15 -15 1 -56 36 -56 49
0 6 -34 27 -75 47 -54 26 -84 48 -103 75 -15 21 -35 39 -44 39 -9 0 -26 16
-38 35 -12 20 -27 41 -34 48 -7 6 -15 20 -19 30 -3 9 -15 17 -25 17 -11 0 -25
14 -35 35 -9 20 -28 40 -42 47 -13 6 -27 19 -30 30 -4 10 -14 22 -24 28 -10 5
-28 29 -39 52 -11 24 -36 61 -55 82 -19 21 -37 51 -40 65 -3 15 -25 60 -49
100 -61 103 -59 99 -103 194 -22 48 -43 87 -47 87 -4 0 -5 -8 -2 -17 4 -13 -1
-11 -16 6 -11 14 -20 36 -20 50 3 41 2 44 -34 99 -21 34 -35 70 -39 102 -3 28
-13 60 -22 72 -8 13 -15 32 -15 43 0 12 -5 26 -12 33 -9 9 -9 12 0 12 6 0 9 6
7 13 -2 6 -6 23 -9 37 -13 72 -28 125 -39 132 -17 11 -29 10 -22 -2 3 -6 4
-10 0 -10 -9 0 -23 44 -18 53 3 5 14 1 24 -9 11 -10 19 -12 19 -6 0 7 -4 12
-10 12 -5 0 -8 14 -6 30 4 33 16 54 16 28 0 -9 7 -18 15 -22 8 -3 15 -1 15 4
0 6 -4 10 -9 10 -4 0 -7 12 -5 27 1 15 -3 31 -9 35 -7 4 -7 8 -2 8 12 0 9 133
-5 203 -6 26 -10 71 -10 100 0 37 -3 48 -10 37 -7 -11 -10 -3 -10 31 0 25 6
51 12 57 8 8 9 15 3 20 -12 8 -19 36 -7 28 17 -10 30 11 37 59 6 46 6 48 -8
30 -8 -11 -17 -29 -20 -40 -9 -34 1 196 12 270 10 68 28 159 56 295 8 36 37
132 65 214 46 133 50 150 35 158 -13 8 -14 13 -4 24 16 20 32 18 24 -3 -4 -12
-3 -15 4 -8 11 12 120 211 132 243 5 13 27 49 49 82 22 32 40 64 40 71 0 18
-27 -8 -51 -50 -11 -21 -29 -42 -40 -49 -16 -10 -15 -5 8 36 61 109 231 342
256 351 7 2 4 -5 -5 -16 -10 -11 -18 -26 -18 -34 1 -9 8 -5 21 11 11 14 51 59
89 100 90 99 88 96 65 80 -10 -8 -46 -41 -79 -72 -33 -31 -62 -55 -65 -53 -6
6 28 55 66 94 18 19 33 41 33 50 0 9 9 22 21 29 24 15 39 8 21 -10 -19 -19
-14 -26 13 -20 14 2 49 27 78 54 28 27 41 44 29 38 -13 -6 -26 -9 -28 -7 -5 5
29 30 69 52 10 6 19 15 20 20 1 6 36 37 79 70 42 33 77 66 78 73 0 7 -4 10
-10 7 -22 -14 -8 13 23 42 35 33 160 123 171 123 18 0 117 83 113 95 -3 7 0
18 6 25 9 10 9 11 0 6 -7 -4 -13 -3 -13 3 0 5 14 17 32 25 39 20 44 20 28 1
-22 -26 -6 -38 20 -15 18 15 21 23 12 27 -8 3 0 15 25 34 41 30 63 38 44 15
-9 -10 8 -7 54 9 36 13 71 27 78 31 6 4 3 -3 -8 -16 l-20 -23 25 7 c14 3 -6
-10 -44 -29 -70 -35 -99 -55 -80 -55 6 0 15 5 22 12 9 9 12 8 12 -5 0 -10 -12
-22 -27 -28 -33 -13 -35 -14 -98 -56 -26 -18 -53 -34 -59 -36 -8 -3 -8 -8 0
-16 7 -8 26 -2 69 24 32 20 69 38 82 41 13 4 25 10 28 14 19 31 404 169 574
205 75 17 82 20 60 29 -13 6 -27 14 -30 18 -11 16 -49 17 -76 2 -16 -7 -39
-14 -52 -14 -24 0 -158 -37 -176 -49 -17 -10 -56 -8 -52 4 2 5 10 9 18 8 8 -2
46 8 84 22 l70 25 -75 -5 c-72 -4 -150 -24 -241 -63 -24 -10 -57 -22 -74 -25
l-30 -7 29 16 c16 9 52 24 82 34 29 10 68 25 86 34 18 8 51 20 73 25 22 5 81
21 130 36 50 14 103 29 119 33 22 5 32 16 38 38 4 16 24 49 44 72 20 24 33 46
29 50 -9 10 -154 10 -157 1z m-258 -324 c-7 -8 -22 -15 -34 -15 -20 0 -19 1 4
14 34 19 45 19 30 1z m-900 -189 c0 -15 -61 -58 -70 -49 -4 4 58 63 67 63 2 0
3 -6 3 -14z m363 -48 c-13 -12 -26 -19 -29 -15 -4 4 1 14 12 22 29 22 41 18
17 -7z m-68 -58 c-3 -5 -16 -15 -28 -21 -19 -9 -19 -8 3 10 28 23 34 26 25 11z
m-85 -64 c0 -2 -7 -7 -16 -10 -8 -3 -12 -2 -9 4 6 10 25 14 25 6z m-590 -201
c-7 -8 -17 -15 -22 -15 -6 0 -5 7 2 15 7 8 17 15 22 15 6 0 5 -7 -2 -15z
m-114 -72 c-38 -35 -46 -20 -10 18 16 17 30 25 33 18 2 -6 -9 -22 -23 -36z
m-136 -135 c-8 -7 -20 -20 -28 -28 -12 -13 -13 -13 -6 0 12 25 26 40 37 40 6
0 5 -6 -3 -12z m346 -76 c-15 -30 -56 -70 -56 -56 0 10 58 84 66 84 2 0 -2
-12 -10 -28z m-472 -139 c-41 -56 -44 -59 -44 -42 0 20 64 103 68 90 2 -6 -9
-27 -24 -48z m169 -345 c-4 -7 -8 -15 -8 -18 -1 -16 -25 -44 -31 -37 -5 5 -3
12 5 16 7 5 13 12 13 17 1 18 10 34 20 34 5 0 6 -6 1 -12z m-26 -88 c1 -11 -2
-20 -6 -20 -5 0 -14 -13 -21 -29 -6 -16 -21 -38 -31 -47 -17 -16 -17 -11 5 37
14 29 26 60 26 67 0 20 26 13 27 -8z m-156 -323 c-10 -9 -11 -8 -5 6 3 10 9
15 12 12 3 -3 0 -11 -7 -18z m-100 -329 l-9 -33 -1 36 c-1 20 2 39 6 43 13 12
15 -10 4 -46z m-14 -75 c-3 -10 -5 -4 -5 12 0 17 2 24 5 18 2 -7 2 -21 0 -30z
m-440 -535 c-3 -8 -6 -5 -6 6 -1 11 2 17 5 13 3 -3 4 -12 1 -19z m6 -409 c3
-13 1 -19 -6 -16 -7 2 -12 8 -12 13 0 5 -4 15 -8 21 -5 9 -3 11 6 7 8 -3 17
-14 20 -25z m9 -78 c3 -47 2 -49 -15 -34 -11 11 -17 28 -15 50 3 52 26 40 30
-16z m470 -165 c7 -33 -2 -87 -13 -80 -5 3 -9 25 -9 49 0 24 -4 47 -10 50 -5
3 -10 11 -10 16 0 20 38 -11 42 -35z m5108 -441 c-20 -52 -41 -85 -54 -85 -29
0 -23 29 12 69 42 47 56 52 42 16z m-5210 -455 c26 -50 26 -69 1 -46 -15 14
-35 86 -24 86 1 0 12 -18 23 -40z m4838 -172 c-3 -7 -13 -15 -24 -17 -16 -3
-17 -1 -5 13 16 19 34 21 29 4z m-3608 -525 c0 -7 -39 17 -46 28 -3 6 5 3 20
-6 14 -10 26 -19 26 -22z m667 -1075 c-3 -8 -6 -5 -6 6 -1 11 2 17 5 13 3 -3
4 -12 1 -19z m266 -18 c4 0 7 -4 7 -9 0 -15 -59 -6 -77 11 -15 15 -13 16 23 8
21 -5 42 -10 47 -10z m44 -16 c-3 -3 -12 -4 -19 -1 -8 3 -5 6 6 6 11 1 17 -2
13 -5z"/>
<path d="M4153 8215 c-15 -17 -16 -25 -3 -25 5 0 14 9 20 20 12 23 1 26 -17 5z"/>
<path d="M5075 8063 c-33 -8 -44 -26 -12 -21 15 3 27 2 27 -2 0 -10 -61 -20
-125 -21 -81 -1 -99 -15 -30 -22 33 -3 61 -3 63 1 1 4 89 7 195 6 166 -2 187
0 156 11 -19 7 -81 15 -137 17 -56 2 -105 7 -109 11 -3 4 42 7 101 7 69 0 105
4 101 10 -6 10 -191 12 -230 3z"/>
<path d="M3192 7771 c-49 -33 -93 -64 -97 -71 -10 -16 3 -26 19 -15 43 32 182
138 185 141 2 2 0 4 -6 4 -6 0 -51 -27 -101 -59z"/>
<path d="M3780 7670 c-13 -8 -12 -10 3 -10 9 0 17 5 17 10 0 12 -1 12 -20 0z"/>
<path d="M2990 7649 c0 -5 5 -7 10 -4 6 3 10 8 10 11 0 2 -4 4 -10 4 -5 0 -10
-5 -10 -11z"/>
<path d="M2820 7445 c-20 -24 -6 -28 15 -5 10 11 13 20 8 20 -6 0 -16 -7 -23
-15z"/>
<path d="M2885 7420 c-3 -5 -1 -10 4 -10 6 0 11 5 11 10 0 6 -2 10 -4 10 -3 0
-8 -4 -11 -10z"/>
<path d="M2785 7400 c-3 -5 -2 -10 4 -10 5 0 13 5 16 10 3 6 2 10 -4 10 -5 0
-13 -4 -16 -10z"/>
<path d="M2738 7354 c-16 -8 -28 -22 -28 -31 0 -13 7 -10 30 12 41 40 41 43
-2 19z"/>
<path d="M2537 7133 c-4 -3 -7 -11 -7 -17 0 -6 5 -5 12 2 6 6 9 14 7 17 -3 3
-9 2 -12 -2z"/>
<path d="M2494 7048 c-4 -7 -23 -37 -42 -67 -43 -68 -26 -58 33 19 31 40 41
60 31 60 -8 0 -18 -6 -22 -12z"/>
<path d="M3280 6355 l0 -605 605 0 605 0 0 605 0 605 -605 0 -605 0 0 -605z
m1058 -2 l-3 -448 -445 0 -445 0 -3 448 -2 447 450 0 450 0 -2 -447z"/>
<path d="M3635 6597 c-3 -7 -4 -120 -3 -252 l3 -240 253 -3 252 -2 -2 252 -3
253 -248 3 c-194 2 -249 0 -252 -11z"/>
<path d="M5044 6947 c-3 -8 -4 -43 -2 -78 l3 -64 75 0 75 0 0 75 0 75 -73 3
c-55 2 -74 -1 -78 -11z"/>
<path d="M5397 6953 c-4 -3 -7 -78 -7 -165 l0 -158 80 0 80 0 0 165 0 165 -73
0 c-41 0 -77 -3 -80 -7z"/>
<path d="M5750 6355 l0 -605 605 0 605 0 0 605 0 605 -605 0 -605 0 0 -605z
m1048 -2 l-3 -448 -445 0 -445 0 -3 448 -2 447 450 0 450 0 -2 -447z"/>
<path d="M6107 6604 c-4 -4 -7 -119 -7 -256 l0 -248 253 2 252 3 0 250 0 250
-246 3 c-135 1 -248 -1 -252 -4z"/>
<path d="M2896 6854 c-10 -14 -15 -28 -13 -31 3 -2 13 7 23 21 9 15 14 29 12
32 -3 2 -13 -7 -22 -22z"/>
<path d="M2317 6705 c-11 -8 -17 -22 -15 -37 3 -22 5 -21 22 10 20 39 18 46
-7 27z"/>
<path d="M4697 6603 c-4 -3 -7 -39 -7 -80 l0 -73 80 0 80 0 0 74 c0 58 -3 75
-16 80 -21 8 -129 8 -137 -1z"/>
<path d="M5047 6604 c-4 -4 -7 -40 -7 -81 l0 -73 80 0 81 0 -3 78 -3 77 -70 3
c-39 1 -74 0 -78 -4z"/>
<path d="M5388 6343 l-3 -88 -82 -3 -82 -3 -3 -82 -3 -82 -95 0 -95 0 -3 83
-3 82 -74 0 -75 0 0 -165 0 -165 85 0 85 0 2 -262 3 -263 75 0 75 0 3 263 2
262 85 0 84 0 3 88 3 87 88 3 87 3 0 164 0 165 -80 0 -79 0 -3 -87z"/>
<path d="M4688 5728 l-3 -173 -347 -3 -348 -2 0 -80 0 -80 85 0 85 0 0 -85 0
-85 80 0 80 0 0 85 0 85 185 0 185 0 0 -260 0 -260 263 -2 262 -3 3 -87 3 -88
74 0 74 0 3 88 3 87 95 0 95 0 3 -87 3 -87 87 -3 87 -3 3 -88 3 -87 162 2 162
3 5 175 5 175 83 3 82 3 0 74 0 74 -82 3 -83 3 -3 173 -2 172 -80 0 -80 0 0
-85 0 -85 -95 0 -95 0 0 95 0 95 85 0 85 0 0 80 0 80 -255 0 -255 0 0 -80 0
-80 90 0 90 0 -2 -182 -3 -183 -95 0 -95 0 -3 173 -2 172 -75 0 -74 0 -3 -82
-3 -83 -182 -3 -183 -2 0 350 0 350 -80 0 -80 0 -2 -172z m1232 -783 l0 -95
-95 0 -95 0 0 95 0 95 95 0 95 0 0 -95z"/>
<path d="M5390 5825 l0 -75 80 0 80 0 0 75 0 75 -80 0 -80 0 0 -75z"/>
<path d="M1980 5756 c-13 -16 -7 -46 9 -46 12 0 22 43 12 53 -4 4 -14 1 -21
-7z"/>
<path d="M1949 5700 c0 -5 -1 -23 -1 -40 0 -52 2 -58 17 -64 23 -9 30 22 10
44 -11 12 -16 29 -13 45 3 14 1 25 -3 25 -5 0 -9 -4 -10 -10z"/>
<path d="M3280 5120 l0 -430 80 0 79 0 3 88 3 87 173 3 172 2 0 75 0 74 -87 3
-88 3 0 95 0 95 95 0 95 0 3 -87 3 -88 164 0 165 0 0 80 0 80 -85 0 -85 0 0
85 0 84 -87 3 -88 3 -3 88 -3 87 -254 0 -255 0 0 -430z"/>
<path d="M6450 5470 l0 -81 78 3 77 3 0 75 0 75 -77 3 -78 3 0 -81z"/>
<path d="M1940 5520 c0 -19 3 -21 12 -12 9 9 9 15 0 24 -9 9 -12 7 -12 -12z"/>
<path d="M6272 5208 l3 -163 340 0 340 0 3 163 2 162 -164 0 -165 0 -3 -82 -3
-83 -97 -3 -98 -3 0 86 0 85 -80 0 -80 0 2 -162z"/>
<path d="M1898 5289 c-10 -66 -9 -167 1 -174 8 -4 11 27 11 99 0 107 -4 131
-12 75z"/>
<path d="M2491 5204 c0 -11 3 -14 6 -6 3 7 2 16 -1 19 -3 4 -6 -2 -5 -13z"/>
<path d="M4340 5120 l0 -80 75 0 75 0 0 80 0 80 -75 0 -75 0 0 -80z"/>
<path d="M4160 4855 l0 -165 165 0 165 0 0 80 0 80 -85 0 -85 0 0 85 0 85 -80
0 -80 0 0 -165z"/>
<path d="M1907 4872 c-13 -19 8 -182 22 -182 4 0 4 35 -1 78 -12 120 -12 119
-21 104z"/>
<path d="M3810 4770 l0 -80 80 0 81 0 -3 78 -3 77 -77 3 -78 3 0 -81z"/>
<path d="M6274 4837 c-2 -7 -3 -82 -2 -167 l3 -155 75 0 75 0 3 168 2 167 -75
0 c-53 0 -77 -4 -81 -13z"/>
<path d="M6630 4330 l0 -520 75 0 74 0 3 88 3 87 88 3 87 3 0 339 0 339 -87 3
-88 3 -3 88 -3 87 -74 0 -75 0 0 -520z"/>
<path d="M4690 4330 l0 -340 85 0 c99 0 98 2 93 -120 l-3 -75 -87 -3 -88 -3 0
-254 0 -255 340 0 339 0 3 88 3 87 95 0 95 0 3 -87 3 -88 164 0 165 0 0 80 0
80 -85 0 -85 0 0 95 0 95 260 0 260 0 0 170 0 170 -85 0 -85 0 0 95 0 95 85 0
85 0 0 165 0 165 -75 0 -74 0 -3 -82 -3 -83 -172 -3 -173 -2 0 -165 0 -164 83
-3 82 -3 0 -95 0 -95 -92 -3 -92 -3 -3 88 -3 88 -75 0 -75 0 -5 -175 -5 -175
-95 0 -95 0 -3 178 -2 177 -75 0 -75 0 -2 -177 -3 -178 -87 -3 -88 -3 0 -84 0
-85 -95 0 -96 0 3 97 3 97 62 -3 c112 -4 103 -27 103 259 l0 249 -82 3 -83 3
-3 182 -2 183 172 2 173 3 3 78 3 77 -256 0 -255 0 0 -340z"/>
<path d="M2495 4630 c3 -5 8 -10 11 -10 2 0 4 5 4 10 0 6 -5 10 -11 10 -5 0
-7 -4 -4 -10z"/>
<path d="M7820 4611 c0 -12 5 -21 10 -21 6 0 10 6 10 14 0 8 -4 18 -10 21 -5
3 -10 -3 -10 -14z"/>
<path d="M3280 3885 l0 -605 605 0 605 0 0 605 0 605 -605 0 -605 0 0 -605z
m1058 3 l2 -448 -450 0 -450 0 0 443 c0 244 3 447 7 450 3 4 205 6 447 5 l441
-3 3 -447z"/>
<path d="M3634 4127 c-2 -7 -3 -120 -2 -252 l3 -240 250 0 250 0 3 253 2 252
-250 0 c-193 0 -252 -3 -256 -13z"/>
<path d="M5390 4415 l0 -75 80 0 80 0 0 75 0 75 -80 0 -80 0 0 -75z"/>
<path d="M2622 4340 c0 -17 4 -30 9 -30 11 0 12 47 1 54 -5 3 -9 -8 -10 -24z"/>
<path d="M5044 4307 c-3 -8 -4 -43 -2 -78 l3 -64 75 0 75 0 0 75 0 75 -73 3
c-55 2 -74 -1 -78 -11z"/>
<path d="M5390 4065 l0 -75 80 0 80 0 0 75 0 75 -80 0 -80 0 0 -75z"/>
<path d="M6270 4065 l0 -75 80 0 80 0 0 75 0 75 -80 0 -80 0 0 -75z"/>
<path d="M7446 3944 c-22 -21 -20 -27 4 -14 11 6 20 15 20 20 0 14 -6 12 -24
-6z"/>
<path d="M7324 3815 c-18 -39 -18 -43 -3 -29 19 17 43 74 31 74 -4 0 -16 -20
-28 -45z"/>
<path d="M6452 3713 l3 -78 54 -3 c30 -2 65 -1 78 3 23 5 24 9 21 78 l-3 72
-78 3 -78 3 3 -78z"/>
<path d="M6800 3710 l0 -81 78 3 77 3 3 78 3 77 -81 0 -80 0 0 -80z"/>
<path d="M6739 3203 c-13 -17 -13 -17 6 -3 11 8 22 16 24 17 2 2 0 3 -6 3 -6
0 -17 -8 -24 -17z"/>
<path d="M6798 2234 c-16 -8 -28 -17 -28 -19 0 -10 16 -4 40 15 30 23 25 25
-12 4z"/>
<path d="M4378 1893 c7 -3 16 -2 19 1 4 3 -2 6 -13 5 -11 0 -14 -3 -6 -6z"/>
<path d="M5840 1880 c0 -13 30 -13 50 0 11 7 7 10 -17 10 -18 0 -33 -4 -33
-10z"/>
<path d="M4886 1861 c-3 -5 -25 -7 -49 -4 -33 4 -39 2 -27 -7 12 -9 2 -10 -40
-5 -50 6 -53 5 -35 -8 11 -8 46 -17 77 -20 48 -5 62 -2 85 15 47 36 48 38 21
38 -15 0 -29 -4 -32 -9z"/>
<path d="M5610 1840 c0 -11 40 -11 85 0 25 6 20 8 -27 9 -33 0 -58 -3 -58 -9z"/>
</g>
</svg>
